<?xml version="1.0" encoding="UTF-8"?>
<svg viewBox="0 0 250 250" xmlns="http://www.w3.org/2000/svg">
 <path d="m164.53 62.688c-1.7401 0-3.1562 1.3849-3.1562 3.125v2.9375h-123c-3.2827 0-5.9062 2.6236-5.9062 5.9062v106.72c0 3.2827 2.6236 5.9375 5.9062 5.9375h173.25c3.2827 0 5.9063-2.6548 5.9062-5.9375v-106.72c0-3.2827-2.6236-5.9062-5.9062-5.9062h-9.5625v-2.9375c0-1.7401-1.4162-3.125-3.1562-3.125h-34.375zm-117.72 15.312h41.844c1.7401 0 3.1562 1.3849 3.1562 3.125v15.188c0 1.7401-1.4162 3.125-3.1562 3.125h-41.844c-1.7401 0-3.125-1.3849-3.125-3.125v-15.188c0-1.7401 1.3849-3.125 3.125-3.125zm99.188 10.219c21.735 0 39.375 17.932 39.375 40.031s-17.64 40.031-39.375 40.031-39.375-17.932-39.375-40.031 17.64-40.031 39.375-40.031zm0 3.5c-19.834 0-35.938 16.364-35.938 36.531s16.103 36.531 35.938 36.531 35.938-16.364 35.938-36.531-16.103-36.531-35.938-36.531zm0 4.875c17.178 0 31.125 14.19 31.125 31.656s-13.947 31.625-31.125 31.625-31.125-14.159-31.125-31.625 13.947-31.656 31.125-31.656zm30.5 76.125h29.688c1.2339 0 2.2188 0.40908 2.2188 0.90625v4.3438c0 0.49717-0.98487 0.875-2.2188 0.875h-29.688c-1.2339 0-2.2188-0.37783-2.2188-0.875v-4.3438c0-0.49717 0.98487-0.90625 2.2188-0.90625z"/>
 <path d="m20,0c-1.44006,0-2.83525.15099-4.1875.4375-.60221.1277-1.20059.28871-1.78125.46875-.47648.14774-.9459.3186-1.40625.5-.29623.11682-.58597.24467-.875.375-.40272.18111-.79959.35617-1.1875.5625l-.125.0625-.0625.03125c-.54231.29584-1.05236.62575-1.5625.96875-.52938.35594-1.03973.75267-1.53125,1.15625-.00619.00509-.02506-.00509-.03125,0l-.03125.03125c-.11401.09427-.2319.18452-.34375.28125-.3593.31143-.69521.63271-1.03125.96875-.43935.43806-.85301.89761-1.25,1.375-.01474.0178-.01657.04465-.03125.0625-.79501.96267-1.52023,1.99062-2.125,3.09375l-.03125.0625c-.29786.54785-.56603,1.10971-.8125,1.6875-.01816.04266-.04462.08218-.0625.125-.24354.58243-.43657,1.17182-.625,1.78125-.17662.57124-.34315,1.15758-.46875,1.75-.29059,1.36133-.4375,2.76822-.4375,4.21875v210c0,11.08 8.92,20 20,20h210c1.44006,0 2.83525-.15099 4.1875-.4375 .60153-.12753 1.20116-.28869 1.78125-.46875 .47601-.14775.9463-.31849 1.40625-.5 .29623-.11682.58597-.24467.875-.375l.09375-.03125c.41461-.1892.81999-.37769 1.21875-.59375l.0625-.03125c.54425-.29738 1.05058-.62377 1.5625-.96875 .48128-.32434.95609-.66736 1.40625-1.03125l.15625-.125c.12651-.10432.25115-.20515.375-.3125 .35765-.30962.69655-.63481 1.03125-.96875 .33604-.33604.65732-.67195.96875-1.03125 .10667-.12266.20881-.24973.3125-.375 .00526-.00638-.00525-.02487 0-.03125 .40499-.49045.7989-1.00299 1.15625-1.53125 .34437-.50907.67161-1.02128.96875-1.5625l.03125-.0625c.29822-.5477.56556-1.11011.8125-1.6875l.03125-.0625 .03125-.0625c.24117-.57524.43753-1.17992.625-1.78125 .18-.57738.34093-1.15121.46875-1.75 .29059-1.36133.4375-2.76822.4375-4.21875v-210c0-11.08-8.92-20-20-20h-210zm14.78125,19.40625h190.6875c2.84071,0 5.125,2.28429 5.125,5.125v190.71875l-195.8125-195.84375zm-15.375,15.34375 195.8125,195.84375h-190.6875c-2.84071,1e-005-5.125-2.28429-5.125-5.125v-190.71875z" fill="#c4261d"/>
</svg>
