<?xml version="1.0" encoding="UTF-8" standalone="no"?>
<!-- Generator: Adobe Illustrator 19.0.0, SVG Export Plug-In . SVG Version: 6.00 Build 0)  -->

<svg
   xmlns:dc="http://purl.org/dc/elements/1.1/"
   xmlns:cc="http://creativecommons.org/ns#"
   xmlns:rdf="http://www.w3.org/1999/02/22-rdf-syntax-ns#"
   xmlns:svg="http://www.w3.org/2000/svg"
   xmlns="http://www.w3.org/2000/svg"
   xmlns:sodipodi="http://sodipodi.sourceforge.net/DTD/sodipodi-0.dtd"
   xmlns:inkscape="http://www.inkscape.org/namespaces/inkscape"
   version="1.1"
   id="Layer_1"
   x="0px"
   y="0px"
   viewBox="0 0 600.99597 600.99597"
   xml:space="preserve"
   sodipodi:docname="snail.svg"
   width="600.99597"
   height="600.99597"
   inkscape:version="0.92.3 (2405546, 2018-03-11)"><metadata
   id="metadata3857"><rdf:RDF><cc:Work
       rdf:about=""><dc:format>image/svg+xml</dc:format><dc:type
         rdf:resource="http://purl.org/dc/dcmitype/StillImage" /><dc:title></dc:title></cc:Work></rdf:RDF></metadata><defs
   id="defs3855" /><sodipodi:namedview
   pagecolor="#ffffff"
   bordercolor="#666666"
   borderopacity="1"
   objecttolerance="10"
   gridtolerance="10"
   guidetolerance="10"
   inkscape:pageopacity="0"
   inkscape:pageshadow="2"
   inkscape:window-width="1920"
   inkscape:window-height="1017"
   id="namedview3853"
   showgrid="false"
   inkscape:zoom="1.6601692"
   inkscape:cx="153.5988"
   inkscape:cy="304.18586"
   inkscape:window-x="-8"
   inkscape:window-y="-8"
   inkscape:window-maximized="1"
   inkscape:current-layer="Layer_1" />
<circle
   id="path3859"
   cx="288.52478"
   cy="329.93927"
   r="275.87549"
   style="fill:#0215e8;fill-opacity:0.94117647" /><g
   id="g3790"
   transform="matrix(0.80823413,0,0,0.80823413,85.534044,119.72807)">
	<g
   id="g3788">
		<path
   d="m 73.083,165.387 c -3.182,-2.652 -7.91,-2.225 -10.565,0.956 -7.83,9.389 -14.527,19.715 -19.903,30.693 -1.823,3.723 -0.327,8.306 3.437,10.037 3.703,1.703 8.733,-0.778 10.036,-3.438 4.85,-9.902 10.89,-19.216 17.952,-27.683 2.652,-3.182 2.225,-7.911 -0.957,-10.565 z"
   id="path3786"
   inkscape:connector-curvature="0"
   style="fill:#ffffff" />
	</g>
</g>
<g
   id="g3796"
   transform="matrix(0.80823413,0,0,0.80823413,85.534044,119.72807)">
	<g
   id="g3794">
		<path
   d="m 470.605,117.376 c 22.823,0 41.391,-18.567 41.391,-41.391 0,-22.823 -18.568,-41.39 -41.391,-41.39 -22.823,0 -41.39,18.567 -41.39,41.39 0,15.412 8.473,28.874 21,35.998 l -12.535,35.222 c -3.346,-0.938 -7.022,-1.515 -11.03,-1.515 -4.413,0 -9.925,0.728 -15.903,3.193 L 397.551,111.8 c 12.352,-7.169 20.682,-20.533 20.682,-35.815 0,-22.823 -18.568,-41.39 -41.391,-41.39 -22.823,0 -41.391,18.567 -41.391,41.39 0,22.823 18.568,41.391 41.391,41.391 2.24,0 4.437,-0.185 6.581,-0.529 l 14.284,40.137 c -1.708,1.461 -3.419,3.094 -5.118,4.935 -11.226,12.153 -17.432,26.705 -18.445,43.253 -0.813,13.284 -3.496,24.478 -8.111,33.859 -30.619,-91.293 -126.738,-145.883 -222.146,-123.09 -19.369,4.629 -37.323,12.818 -53.363,24.342 -3.365,2.416 -4.133,7.104 -1.715,10.469 2.416,3.364 7.105,4.133 10.469,1.715 14.449,-10.381 30.631,-17.76 48.097,-21.934 45.001,-10.755 91.498,-3.338 130.921,20.879 38.613,23.719 65.916,60.774 77.127,104.57 -2.944,5.12 -11.145,18.02 -25.201,30.229 -21.583,18.746 -47.12,27.966 -76.02,27.477 2.563,-14.609 2.136,-29.67 -1.347,-44.247 -11.386,-47.649 -59.414,-77.15 -107.061,-65.765 -18.857,4.506 -34.827,16.084 -44.974,32.602 -10.147,16.519 -13.253,36 -8.748,54.855 7.632,31.943 39.829,51.721 71.774,44.089 4.029,-0.963 6.516,-5.011 5.553,-9.039 -0.963,-4.03 -5.011,-6.516 -9.039,-5.553 -23.898,5.71 -47.985,-9.086 -53.695,-32.983 -3.575,-14.957 -1.109,-30.412 6.94,-43.516 8.048,-13.103 20.718,-22.289 35.677,-25.862 39.602,-9.464 78.237,15.385 88.983,54.659 5.025,18.363 5.025,86.374 -62.016,102.847 -57.918,14.231 -116.476,-22.057 -130.335,-80.062 -4.63,-19.372 -5.031,-39.021 -1.195,-58.398 0.804,-4.064 -1.838,-8.01 -5.902,-8.814 -4.063,-0.81 -8.01,1.838 -8.814,5.902 -4.258,21.509 -3.814,43.311 1.32,64.797 8.293,34.704 30.614,62.444 59.504,78.688 -43.883,18.117 -75.193,29.557 -75.537,29.683 -0.36,0.132 -17.704,7.241 -15.001,28.587 1.436,11.339 10.298,20.505 21.475,22.889 3.517,0.75 87.2,18.353 181.959,18.355 70.365,0 128.527,-9.781 172.869,-29.071 28.731,-12.498 52.016,-29.185 69.21,-49.595 19.58,-23.239 31.377,-51.301 35.059,-83.367 0.298,-2.476 2.896,-25.007 2.414,-53.319 -0.703,-41.28 -7.567,-73.604 -20.402,-96.073 -0.575,-1.006 -4.879,-8.956 -11.607,-12.179 l 13.128,-36.887 c 2.021,0.304 4.098,0.465 6.211,0.465 z m -93.761,-15.002 c -14.574,0 -26.388,-11.814 -26.388,-26.388 0,-14.573 11.814,-26.387 26.388,-26.387 14.574,0 26.388,11.814 26.388,26.387 0,14.573 -11.814,26.388 -26.388,26.388 z m 91.424,159.929 c 0.466,27.312 -2.023,48.898 -2.313,51.31 -3.345,29.124 -13.986,54.51 -31.631,75.453 -15.692,18.626 -37.132,33.936 -63.723,45.504 -42.443,18.463 -98.59,27.825 -166.899,27.825 -93.18,-0.002 -175.363,-17.289 -178.815,-18.024 -5.081,-1.083 -9.003,-5.265 -9.762,-10.405 -0.733,-4.973 1.63,-9.941 5.908,-12.526 5.077,-1.867 41.085,-15.201 88.369,-35.037 13.192,4.773 27.274,7.35 41.706,7.348 9.444,-10e-4 19.046,-1.098 28.625,-3.387 32.111,-7.674 58.557,-31.095 70.266,-61.798 42.872,1.832 72.784,-15.878 90.555,-31.462 20.05,-17.585 42.922,-44.85 48.568,-91.016 1.582,-12.936 5.672,-24.444 14.491,-33.992 8.707,-9.427 17.336,-11.524 23.039,-11.406 15.834,0.327 22.928,12.27 23.189,12.726 11.567,20.253 17.767,50.158 18.427,88.887 z M 444.218,75.986 c -0.464,-14.565 11.814,-26.387 26.387,-26.387 14.573,0 26.388,11.814 26.388,26.387 0,14.573 -11.814,26.388 -26.388,26.388 -2.439,0 -25.62,-2.281 -26.387,-26.388 z"
   id="path3792"
   inkscape:connector-curvature="0"
   style="fill:#ffffff" />
	</g>
</g>
<g
   id="g3802"
   transform="matrix(0.80823413,0,0,0.80823413,85.534044,119.72807)">
	<g
   id="g3800">
		<path
   d="m 328.389,263.556 c -3.492,-24.092 -14.072,-45.671 -31.449,-64.138 -2.839,-3.018 -7.587,-3.163 -10.604,-0.322 -3.016,2.838 -3.161,7.586 -0.322,10.604 15.224,16.181 24.486,35.025 27.526,56.01 0.542,3.736 3.748,6.426 7.414,6.426 0.358,0 0.721,-0.025 1.086,-0.079 4.101,-0.596 6.943,-4.4 6.349,-8.501 z"
   id="path3798"
   inkscape:connector-curvature="0"
   style="fill:#ffffff" />
	</g>
</g>
<g
   id="g3808"
   transform="matrix(0.80823413,0,0,0.80823413,85.534044,119.72807)">
	<g
   id="g3806">
		<path
   d="m 274.127,179.817 c -16.016,-11.176 -29.364,-16.054 -29.925,-16.256 -3.894,-1.405 -8.195,0.613 -9.602,4.511 -1.406,3.898 0.614,8.196 4.511,9.602 0.118,0.043 12.026,4.395 26.43,14.446 1.307,0.913 2.805,1.351 4.286,1.351 2.368,0 4.7,-1.119 6.158,-3.211 2.372,-3.395 1.539,-8.072 -1.858,-10.443 z"
   id="path3804"
   inkscape:connector-curvature="0"
   style="fill:#ffffff" />
	</g>
</g>
<g
   id="g3814"
   transform="matrix(0.80823413,0,0,0.80823413,85.534044,119.72807)">
	<g
   id="g3812">
		<path
   d="m 376.843,59.599 c -9.034,0 -16.386,7.351 -16.386,16.387 0,9.034 7.351,16.386 16.386,16.386 9.035,0 16.387,-7.35 16.387,-16.386 -0.001,-9.036 -7.352,-16.387 -16.387,-16.387 z"
   id="path3810"
   inkscape:connector-curvature="0"
   style="fill:#ffffff" />
	</g>
</g>
<g
   id="g3820"
   transform="matrix(0.80823413,0,0,0.80823413,85.534044,119.72807)">
	<g
   id="g3818">
		<path
   d="m 470.605,59.599 c -9.034,0 -16.386,7.351 -16.386,16.387 0,9.034 7.351,16.386 16.386,16.386 9.035,0 16.387,-7.35 16.387,-16.386 0,-9.036 -7.352,-16.387 -16.387,-16.387 z"
   id="path3816"
   inkscape:connector-curvature="0"
   style="fill:#ffffff" />
	</g>
</g>
<g
   id="g3822"
   transform="translate(0,88.999998)">
</g>
<g
   id="g3824"
   transform="translate(0,88.999998)">
</g>
<g
   id="g3826"
   transform="translate(0,88.999998)">
</g>
<g
   id="g3828"
   transform="translate(0,88.999998)">
</g>
<g
   id="g3830"
   transform="translate(0,88.999998)">
</g>
<g
   id="g3832"
   transform="translate(0,88.999998)">
</g>
<g
   id="g3834"
   transform="translate(0,88.999998)">
</g>
<g
   id="g3836"
   transform="translate(0,88.999998)">
</g>
<g
   id="g3838"
   transform="translate(0,88.999998)">
</g>
<g
   id="g3840"
   transform="translate(0,88.999998)">
</g>
<g
   id="g3842"
   transform="translate(0,88.999998)">
</g>
<g
   id="g3844"
   transform="translate(0,88.999998)">
</g>
<g
   id="g3846"
   transform="translate(0,88.999998)">
</g>
<g
   id="g3848"
   transform="translate(0,88.999998)">
</g>
<g
   id="g3850"
   transform="translate(0,88.999998)">
</g>
</svg>