<?xml version="1.0" encoding="UTF-8" standalone="no"?>
<svg xmlns:dc="http://purl.org/dc/elements/1.1/" xmlns:cc="http://creativecommons.org/ns#" xmlns:rdf="http://www.w3.org/1999/02/22-rdf-syntax-ns#" xmlns:svg="http://www.w3.org/2000/svg" xmlns="http://www.w3.org/2000/svg" xmlns:sodipodi="http://sodipodi.sourceforge.net/DTD/sodipodi-0.dtd" xmlns:inkscape="http://www.inkscape.org/namespaces/inkscape" version="1.1" height="671.52" width="753.12" sodipodi:version="0.32" inkscape:version="0.47 r22583" id="svg2" sodipodi:docname="Zeichen_139-Dosentuere.svg">
  <defs id="defs11">
    <inkscape:perspective sodipodi:type="inkscape:persp3d" inkscape:vp_x="0 : 335.76001 : 1" inkscape:vp_y="0 : 1000 : 0" inkscape:vp_z="753.12 : 335.76001 : 1" inkscape:persp3d-origin="376.56 : 223.84001 : 1" id="perspective13"/>
    <inkscape:perspective id="perspective2829" inkscape:persp3d-origin="0.5 : 0.33333333 : 1" inkscape:vp_z="1 : 0.5 : 1" inkscape:vp_y="0 : 1000 : 0" inkscape:vp_x="0 : 0.5 : 1" sodipodi:type="inkscape:persp3d"/>
    <clipPath clipPathUnits="userSpaceOnUse" id="clipPath3622">
      <path id="path3624" d="m 202.32552,877.09007 c -11.07336,0 -21.30555,-5.90757 -26.84224,-15.49738 -5.53666,-9.58982 -5.53666,-21.40496 0,-30.99473 L 470.48969,319.63188 c 5.53666,-9.5898 15.76885,-15.49737 26.84222,-15.49737 11.07337,0 21.30558,5.90757 26.84223,15.49737 l 295.00641,510.96608 c 5.53666,9.58977 5.53666,21.40491 0,30.99473 -5.53669,9.58979 -15.76889,15.49738 -26.84225,15.49738 l -590.01278,0 z" style="fill:none;stroke:#000000;stroke-width:1.93717122;stroke-opacity:1"/>
    </clipPath>
    <inkscape:perspective id="perspective3846" inkscape:persp3d-origin="0.5 : 0.33333333 : 1" inkscape:vp_z="1 : 0.5 : 1" inkscape:vp_y="0 : 1000 : 0" inkscape:vp_x="0 : 0.5 : 1" sodipodi:type="inkscape:persp3d"/>
    <clipPath clipPathUnits="userSpaceOnUse" id="clipPath3649">
      <path id="path3651" d="m 185.99258,574.7705 c -7.45321,0 -14.34025,-3.97626 -18.06687,-10.43091 -3.72659,-6.45468 -3.72659,-14.40715 0,-20.86181 L 366.4874,199.55885 c 3.72661,-6.45466 10.61366,-10.43091 18.06686,-10.43091 7.45321,0 14.34027,3.97625 18.06687,10.43091 l 198.56169,343.91893 c 3.72659,6.45466 3.72659,14.40713 0,20.86181 -3.72661,6.45465 -10.61366,10.43091 -18.06687,10.43091 l -397.12337,0 z" style="fill:none;stroke:#000000;stroke-width:1.30386329"/>
    </clipPath>
  </defs>
  <sodipodi:namedview inkscape:window-height="997" inkscape:window-width="1280" inkscape:pageshadow="2" inkscape:pageopacity="0.0" guidetolerance="10.0" gridtolerance="10.0" objecttolerance="10.0" borderopacity="1.0" bordercolor="#666666" pagecolor="#ffffff" id="base" inkscape:zoom="0.56290205" inkscape:cx="167.97716" inkscape:cy="40.796068" inkscape:window-x="0" inkscape:window-y="1" inkscape:current-layer="svg2" showgrid="false" inkscape:window-maximized="1" inkscape:snap-global="true" inkscape:snap-page="true" inkscape:snap-nodes="false">
    <inkscape:grid type="xygrid" id="grid3621"/>
  </sodipodi:namedview>
  <metadata id="metadata4">
    <rdf:RDF>
      <cc:Work>
        <dc:format>image/svg+xml</dc:format>
        <dc:type rdf:resource="http://purl.org/dc/dcmitype/StillImage"/>
        <dc:creator>
          <cc:Agent>
            <dc:title>MarianSigler, mariansigler@gmail.com</dc:title>
          </cc:Agent>
        </dc:creator>
        <cc:license rdf:resource="http://web.resource.org/cc/PublicDomain"/>
        <dc:title/>
      </cc:Work>
      <cc:License rdf:about="http://web.resource.org/cc/PublicDomain">
        <cc:permits rdf:resource="http://web.resource.org/cc/Reproduction"/>
        <cc:permits rdf:resource="http://web.resource.org/cc/Distribution"/>
        <cc:permits rdf:resource="http://web.resource.org/cc/DerivativeWorks"/>
        <cc:requires rdf:resource="http://web.resource.org/cc/ShareAlike"/>
      </cc:License>
    </rdf:RDF>
  </metadata>
  <path style="fill:#ffffff;fill-rule:evenodd;stroke:#000000;stroke-width:2.21954989" d="m 38.550935,663.99724 c -12.687503,0 -24.411233,-6.76872 -30.754995,-17.7564 -6.3437403,-10.98772 -6.3437403,-24.52512 0,-35.5128 L 345.80499,25.279186 c 6.34376,-10.987694 18.06749,-17.7564115 30.75498,-17.7564115 12.68752,0 24.41127,6.7687175 30.75501,17.7564115 L 745.32403,610.72804 c 6.34374,10.98768 6.34374,24.52508 0,35.5128 -6.34376,10.98767 -18.06749,17.7564 -30.75499,17.7564 l -676.018105,0 z" id="path6"/>
  <g id="g3638" clip-path="url(#clipPath3649)">
    <g id="g3630">
      <path sodipodi:nodetypes="cccccccccccc" id="path3800" d="m 443.29334,493.16278 c -0.0405,4.65055 -2.95279,7.66013 -7.91516,9.49821 L 303.9864,502.39715 c -4.94726,-4.26558 -3.57454,-4.31785 -4.7491,-6.0683 -6.79418,-12.55326 -9.69855,-37.8873 -11.60892,-66.4874 0.46135,-24.08864 5.51412,-46.34071 9.23437,-69.12579 1.09548,-6.30898 7.65485,-6.47109 14.2473,-6.59598 l 41.95038,0 c 13.89701,2.72485 28.50199,4.74172 39.04816,10.8174 11.75104,6.25769 20.47901,13.72461 28.75844,21.37095 10.30204,12.4839 19.5058,25.36716 22.16247,40.63119 l 0.26384,66.22356 z" style="fill:none;stroke:#003399;stroke-width:0;stroke-miterlimit:4;stroke-opacity:1;stroke-dasharray:none"/>
      <path style="fill:#000000;fill-opacity:1;stroke:none" d="m 443.29334,493.16278 c -0.0405,4.65055 -2.95279,7.66013 -7.91516,9.49821 L 303.9864,502.39715 c -4.94726,-4.26558 -3.57454,-4.31785 -4.7491,-6.0683 -6.79418,-12.55326 -9.69855,-37.8873 -11.60892,-66.4874 0.46135,-24.08864 5.51412,-46.34071 9.23437,-69.12579 1.09548,-6.30898 7.65485,-6.47109 14.2473,-6.59598 l 41.95038,0 c 13.89701,2.72485 28.50199,4.74172 39.04816,10.8174 11.75104,6.25769 20.47901,13.72461 28.75844,21.37095 10.30204,12.4839 19.5058,25.36716 22.16247,40.63119 l 0.26384,66.22356 z" id="path3720" sodipodi:nodetypes="cccccccccccc"/>
      <path id="path3761" style="fill:#ffffff;fill-rule:evenodd;stroke:#ffffff;stroke-width:6.54403591;stroke-miterlimit:4;stroke-opacity:1;stroke-dasharray:none" d="m 433.56028,467.79473 c -0.68169,-50.25069 -3.40847,-7.01173 26.87828,-81.51129 21.91164,-50.64022 -0.29216,-37.00632 113.06403,-38.85663 100.8909,2.04508 80.53743,-12.56267 103.71507,41.19387 29.02075,68.85123 26.78089,32.81877 26.58612,77.71327 -1.07124,49.27683 17.13977,36.61678 -135.55998,38.27232 -151.53112,-2.04507 -133.61228,10.80974 -134.68352,-36.81154 z m 30.6763,-48.49776 20.74301,-47.91344 c 3.87016,-8.51098 2.63541,-7.25459 11.6862,-7.30388 l 145.02437,-0.0157 c 7.85091,0.0289 6.69913,-0.48091 9.93327,7.01173 l 20.62759,47.63691 -208.01444,0.58431 z m -14.83499,90.80614 38.79171,-0.0866 c -0.11903,48.70334 3.91704,45.98739 -17.23716,46.30118 -25.19026,-0.0974 -21.2083,2.44545 -21.55455,-46.21462 z m 199.76918,0.34627 38.85664,0 c -0.2597,48.77908 3.28944,45.44634 -18.69793,45.57619 -22.73401,-0.30297 -19.84491,3.28946 -20.15871,-45.57619 z"/>
      <path d="m 433.56028,467.79473 c -0.68169,-50.25069 -3.40847,-7.01173 26.87828,-81.51129 21.91164,-50.64022 -0.29216,-37.00632 113.06403,-38.85663 100.8909,2.04508 80.53743,-12.56267 103.71507,41.19387 29.02075,68.85123 26.78089,32.81877 26.58612,77.71327 -1.07124,49.27683 17.13977,36.61678 -135.55998,38.27232 -151.53112,-2.04507 -133.61228,10.80974 -134.68352,-36.81154 z m 30.6763,-48.49776 20.74301,-47.91344 c 3.87016,-8.51098 2.63541,-7.25459 11.6862,-7.30388 l 145.02437,-0.0157 c 7.85091,0.0289 6.69913,-0.48091 9.93327,7.01173 l 20.62759,47.63691 -208.01444,0.58431 z m -14.83499,90.80614 38.79171,-0.0866 c -0.11903,48.70334 3.91704,45.98739 -17.23716,46.30118 -25.19026,-0.0974 -21.2083,2.44545 -21.55455,-46.21462 z m 199.76918,0.34627 38.85664,0 c -0.2597,48.77908 3.28944,45.44634 -18.69793,45.57619 -22.73401,-0.30297 -19.84491,3.28946 -20.15871,-45.57619 z" style="fill:#000000;fill-opacity:1;fill-rule:evenodd;stroke:#003399;stroke-width:0;stroke-miterlimit:4;stroke-opacity:1;stroke-dasharray:none" id="Car"/>
      <path style="fill:#ffffff;fill-opacity:1;stroke:none" d="m 432.21211,421.13476 c -0.52989,-9.23458 -10.39359,-19.40253 -17.41337,-29.28611 -8.2277,-7.0802 -16.22088,-14.13435 -30.60532,-21.89863 -7.39841,-3.98622 -19.10578,-5.38704 -29.81379,-7.38749 l -40.63119,0.79151 c -4.88312,-0.30991 -7.94171,-0.11449 -9.76204,5.27679 -3.72234,11.76911 -4.62853,22.95818 -7.12365,45.90796 -0.28183,6.33313 -0.37175,12.18649 2.11071,11.60892 l 129.5449,1.05535 c 4.10523,-2.02277 2.71044,-4.04553 3.69375,-6.0683 z" id="path3724" sodipodi:nodetypes="cccccccccc"/>
      <rect style="fill:#ffffff;fill-opacity:1;stroke:#ffffff;stroke-width:8.8211832;stroke-linejoin:round;stroke-miterlimit:4;stroke-opacity:1;stroke-dasharray:none" id="rect2846" width="13.43558" height="25.488094" x="462.01892" y="442.28448"/>
    </g>
  </g>
  <path style="fill:#cc0000;fill-rule:evenodd;stroke:none" d="m 38.550935,650.67994 c -7.929698,0 -15.257032,-4.23044 -19.22188,-11.09775 -3.964827,-6.86734 -3.964827,-15.32819 0,-22.1955 L 357.33813,31.937847 c 3.96482,-6.867332 11.29218,-11.097773 19.22184,-11.097773 7.92971,0 15.25705,4.230441 19.2219,11.097773 L 733.79092,617.38669 c 3.96483,6.86731 3.96483,15.32816 0,22.1955 -3.96485,6.86731 -11.29218,11.09775 -19.22188,11.09775 l -676.018105,0 z m 76.887525,-66.5865 261.12151,-452.27585 261.12155,452.27585 -522.24306,0 z" id="path8"/>
</svg>