<?xml version="1.0" encoding="UTF-8" standalone="no"?>
<svg
   xmlns:dc="http://purl.org/dc/elements/1.1/"
   xmlns:cc="http://creativecommons.org/ns#"
   xmlns:rdf="http://www.w3.org/1999/02/22-rdf-syntax-ns#"
   xmlns:svg="http://www.w3.org/2000/svg"
   xmlns="http://www.w3.org/2000/svg"
   xmlns:sodipodi="http://sodipodi.sourceforge.net/DTD/sodipodi-0.dtd"
   xmlns:inkscape="http://www.inkscape.org/namespaces/inkscape"
   version="1.0"
   width="1000"
   height="873.00836"
   id="svg2686"
   sodipodi:docname="luecke.svg"
   inkscape:version="1.0 (4035a4fb49, 2020-05-01)">
  <metadata
     id="metadata11">
    <rdf:RDF>
      <cc:Work
         rdf:about="">
        <dc:format>image/svg+xml</dc:format>
        <dc:type
           rdf:resource="http://purl.org/dc/dcmitype/StillImage" />
        <dc:title></dc:title>
      </cc:Work>
    </rdf:RDF>
  </metadata>
  <sodipodi:namedview
     inkscape:document-rotation="0"
     pagecolor="#ffffff"
     bordercolor="#666666"
     borderopacity="1"
     objecttolerance="10"
     gridtolerance="10"
     guidetolerance="10"
     inkscape:pageopacity="0"
     inkscape:pageshadow="2"
     inkscape:window-width="1920"
     inkscape:window-height="1137"
     id="namedview9"
     showgrid="false"
     inkscape:zoom="0.29766238"
     inkscape:cx="208.73568"
     inkscape:cy="864.70319"
     inkscape:window-x="1912"
     inkscape:window-y="-8"
     inkscape:window-maximized="1"
     inkscape:current-layer="layer2" />
  <defs
     id="defs2688" />
  <g
     id="layer1-0"
     transform="matrix(0.53201048,0,0,0.53201048,321.27349,207.80013)">
    <path
       id="path10502"
       style="fill:#176fc1;fill-rule:nonzero;stroke:none"
       d="m 315.342,86.964745 c 0,-265.078665 214.9045,-479.993065 480,-479.993065 265.0955,0 480,214.9144 480,479.993065 0,265.092535 -214.9045,480.006935 -480,480.006935 -265.0955,0 -480,-214.9144 -480,-480.006935" />
    <path
       id="path10504"
       style="fill:#ffffff;fill-rule:nonzero;stroke:none"
       d="m 1154.2825,56.439023 c -29.9983,-29.9987 -69.899,-46.5305771 -112.3342,-46.5305771 -20.3174,0 -39.7484,3.8833271 -57.62829,10.8733151 l -36.79843,-81.827244 14.86064,-23.563472 c 26.05113,5.270229 51.76988,10.401768 53.16868,10.401768 14.5559,0 26.3558,-11.80254 26.3558,-26.351143 0,-14.54861 -11.7999,-26.33728 -26.3558,-26.33728 -0.734,0 -108.65024,0.0971 -108.65024,0.0971 -0.0139,0 -0.0139,0 -0.0139,0 -8.48982,0 -15.35923,6.89291 -15.35923,15.38075 0,8.48784 6.86941,15.366879 15.35923,15.366879 v 0.15256 c 0,0 16.1348,3.300828 35.96745,7.336714 l -11.93837,18.917349 H 651.09825 c 7.2572,-21.732761 12.03531,-36.101072 12.03531,-36.101072 0.0831,-0.24964 0.1108,-0.49928 0.1662,-0.74893 0.0693,-0.26351 0.15234,-0.54089 0.18004,-0.8044 0.0416,-0.27738 0.0277,-0.54089 0.0277,-0.8044 0.0138,-0.27738 0.0415,-0.54089 0.0277,-0.80441 -0.0277,-0.26351 -0.0831,-0.52702 -0.13849,-0.79053 -0.0416,-0.24964 -0.0693,-0.51315 -0.1385,-0.74893 -0.0554,-0.26351 -0.1662,-0.49928 -0.26314,-0.73506 -0.097,-0.24964 -0.1662,-0.49928 -0.277,-0.73505 -0.12464,-0.22191 -0.27699,-0.42994 -0.40163,-0.65185 -0.1385,-0.2219 -0.26315,-0.45768 -0.42934,-0.67958 -0.15235,-0.19417 -0.34624,-0.37446 -0.52629,-0.56863 -0.18004,-0.19417 -0.33239,-0.4022 -0.54013,-0.5825 -0.1939,-0.1803 -0.42934,-0.31899 -0.63708,-0.47155 -0.2216,-0.16642 -0.41549,-0.33285 -0.65094,-0.47154 -0.23544,-0.13869 -0.49858,-0.23578 -0.76173,-0.34673 -0.22159,-0.11095 -0.44318,-0.23577 -0.69248,-0.33286 l -45.63448,-15.86616 13.66957,-35.8653 110.02135,-1.22047 32.56045,29.44394 c 3.33776,3.02345 8.48981,2.75993 11.50903,-0.5825 3.01922,-3.32857 2.75607,-8.48784 -0.58168,-11.51129 l -34.92874,-31.59364 -2.36828,-2.13583 -3.18541,0.0416 -118.76046,1.31756 -5.53985,0.0555 -23.59974,61.9252 7.93583,2.75993 45.95302,15.99099 -41.3411,124.030682 C 585.60341,13.666952 566.07545,9.9084459 545.96581,9.9084459 c -87.61267,0 -158.86895,71.2729161 -158.86895,158.8696741 0,42.43922 16.52259,82.32653 46.52086,112.3391 30.01212,29.9987 69.91287,46.53057 112.34809,46.53057 42.43522,0 82.32212,-16.53187 112.33424,-46.53057 29.99827,-30.01257 46.53471,-69.89988 46.53471,-112.3391 0,-42.43921 -16.53644,-82.326528 -46.53471,-112.339097 -11.81373,-11.80254 -25.16476,-21.483119 -39.58221,-28.930785 3.8502,-11.539028 7.74194,-23.216747 11.53673,-34.603216 L 751.12018,121.92856 c -8.33747,10.26307 -13.35103,23.31383 -13.35103,37.54345 0,15.9355 6.20462,30.91405 17.47821,42.18957 11.27359,11.27551 26.25887,17.47497 42.19978,17.47497 2.38214,0 4.73657,-0.1803 7.06331,-0.45768 l 2.97766,13.28653 h -19.36176 v 18.6261 h 53.57032 V 231.9654 H 817.0305 l -3.37931,-15.0895 c 9.72243,-2.7322 18.65544,-7.87761 25.99573,-15.21432 8.78066,-8.7791 14.4313,-19.81884 16.52259,-31.80168 l 26.96521,1.02631 c 0.54013,41.64868 16.96578,80.71772 46.47931,110.23101 29.99827,29.9987 69.89901,46.53057 112.33427,46.53057 42.4352,0 82.3359,-16.53187 112.3342,-46.53057 30.0121,-30.01257 46.5347,-69.89988 46.5347,-112.3391 0,-42.43921 -16.5226,-82.326528 -46.5347,-112.339097 z m -515.74586,19.76336 c 24.73542,24.728467 38.34959,57.611927 38.34959,92.575737 0,72.18827 -58.73622,130.92359 -130.92042,130.92359 -34.97028,0 -67.84927,-13.61938 -92.58468,-38.34785 -24.72157,-24.72847 -38.34959,-57.59806 -38.34959,-92.57574 0,-34.96381 13.62802,-67.84727 38.34959,-92.575737 24.73541,-24.728471 57.6144,-38.347853 92.58468,-38.347853 17.04888,0 33.61302,3.259221 48.97224,9.458675 L 566.1724,133.60627 c -2.18824,5.93595 -10.775,22.9255 -23.07346,27.54389 -4.21028,1.58107 -6.34313,6.2688 -4.76427,10.48498 1.57886,4.21618 6.27388,6.35201 10.48416,4.77094 21.89624,-8.21046 32.31116,-36.25363 32.74049,-37.44636 0.0277,-0.0832 12.7832,-38.32012 28.18397,-84.545575 10.42876,5.838859 20.1235,13.106228 28.79335,21.788238 z M 969.45938,27.4805 c -47.2549,24.340138 -80.78482,71.661249 -85.71528,127.10961 l -26.9098,-1.02631 c -1.32957,-13.7026 -7.32645,-26.42049 -17.18738,-36.29524 -0.94177,-0.92922 -1.92509,-1.77523 -2.90842,-2.63511 L 937.09282,-44.499737 Z m 11.43978,25.421922 48.22434,107.235298 -117.45857,-4.4797 c 2.97766,-30.01257 16.09325,-57.847697 37.7125,-79.455637 9.43159,-9.430937 20.05425,-17.239198 31.52173,-23.299961 z M 785.82731,135.13187 772.65633,121.08255 c 2.83917,-1.84458 5.87224,-3.32857 9.0161,-4.4797 z m 4.87507,-20.83128 c 2.21594,-0.31898 4.45957,-0.54089 6.74476,-0.54089 5.5537,0 10.92735,1.02631 15.98246,2.9125 l -16.3841,25.96281 z m 38.47423,12.3157 c 0.1939,0.18029 0.40164,0.34672 0.58169,0.52702 7.10485,7.10094 11.52288,16.12967 12.89399,25.89347 l -29.43044,-1.12339 z M 644.89362,-51.018178 h 274.2778 L 821.00534,104.63388 c -7.3403,-3.14827 -15.31768,-4.840287 -23.5582,-4.840287 -3.33776,0 -6.59242,0.346727 -9.79168,0.873747 L 781.0215,70.987629 h 21.07911 V 52.347661 h -53.55646 v 18.639968 h 22.93496 l 7.13255,31.898761 c -5.60909,1.87231 -10.84425,4.54904 -15.58081,7.91921 L 636.11296,-24.680901 c 3.07462,-9.222901 6.02459,-18.071339 8.78066,-26.337277 z M 797.44714,205.17044 c -12.20151,0 -23.68284,-4.75707 -32.31115,-13.38361 -8.64216,-8.6404 -13.39258,-20.11008 -13.39258,-32.31482 0,-9.95796 3.19926,-19.3889 9.0438,-27.2249 l 32.04801,34.21488 8.60061,38.50042 c -1.31571,0.12482 -2.64528,0.20803 -3.98869,0.20803 z m 13.14329,-1.95553 -7.90813,-35.39375 39.37446,1.49785 c -3.58705,16.18515 -15.73317,29.16656 -31.46633,33.8959 z m 231.35787,96.4868 c -34.9703,0 -67.8493,-13.61938 -92.57087,-38.34785 -23.98753,-23.97954 -37.47706,-55.62866 -38.28034,-89.39973 l 130.54651,4.96511 8.0605,-1.15113 -0.3186,-10.33242 -53.61185,-119.204269 c 14.55595,-5.478265 30.13675,-8.376891 46.17465,-8.376891 34.9702,0 67.8492,13.619382 92.5847,38.347853 24.7215,24.728467 38.3357,57.611927 38.3357,92.575737 0,72.18827 -58.7224,130.92359 -130.9204,130.92359" />
  </g>
  <g
     inkscape:label="Layer 1"
     id="layer2"
     inkscape:groupmode="layer">
    <g
       transform="matrix(0.93846198,0,0,0.93846198,-290.36042,340.14396)"
       id="layer1">
      <path
         d="m 783.83646,-286.97865 c 14.05183,-24.29821 37.03229,-24.29821 51.07181,0 l 468.50103,810.58488 c 14.0395,24.29821 2.5493,44.18752 -25.5421,44.18752 l -936.94046,0.0123 c -28.07903,0 -39.58158,-19.877 -25.52975,-44.17521 z"
         style="fill:#ee1c23;fill-rule:nonzero;stroke:none"
         id="path2699" />
      <path
         d="m 470.23805,463.85209 678.31785,-0.0123 -339.17738,-586.85168 -339.14047,586.864"
         style="fill:#ffffff;fill-rule:nonzero;stroke:none"
         id="path103" />
      <path
         d="m 710.47384,114.71155 c 1.00986,-0.59114 1.65026,-0.89902 1.65026,-0.89902 0,0 -4.74142,2.21676 -1.65026,0.89902"
         style="fill:#000000;fill-rule:nonzero;stroke:none"
         id="path105" />
      <path
         d="m 1071.5603,431.10554 h -0.1601 c -2.8079,-9.44588 -12.4632,-14.26119 -15.2095,-22.5248 -0.9852,-3.91628 -2.9434,-7.83257 -4.9015,-10.77594 0,-0.97292 -0.9852,-1.95814 -2.9434,-3.91629 -4.9015,-3.91628 -1.9581,-11.74885 -5.8867,-16.65037 -0.9729,0 -2.9434,-0.97291 -3.9163,-1.95814 -0.9852,-9.79071 -7.8449,-15.66514 -13.7193,-23.49771 -0.9852,-0.98523 -4.9015,-1.95815 -6.872,-3.91629 -6.8596,-6.85966 -3.9163,-17.62328 -9.803,-25.46817 -1.9582,-1.95814 -3.9163,-2.93106 -6.8597,-4.8892 -2.94335,-1.95814 -2.94335,-6.85966 -4.90149,-10.77594 -1.95814,-4.8892 -7.83257,-3.91629 -8.8178,-9.79072 -0.98523,-2.94337 -0.98523,-7.83257 -3.91629,-9.79071 -7.84488,-3.91628 -16.675,-1.95814 -24.50757,0.97291 -5.88674,1.95815 -11.76117,7.83258 -14.70454,13.71932 -2.94337,4.8892 -5.88675,9.79071 -6.85966,15.66514 0,2.93106 -2.94337,5.87443 -6.87197,6.84734 0.98523,1.95815 -0.97292,2.94337 -0.97292,3.91629 -10.87446,4.53205 -15.88681,13.23901 -24.32284,19.93857 l -32.53719,-39.02738 -12.09368,-21.65041 -0.49262,-1.14533 -1.07143,-0.6404 -32.6234,-19.58143 1.19459,-2.52465 c 0,0 -1.95814,-33.28842 0,-44.06437 1.95814,-10.77594 6.85966,-44.06437 9.80303,-60.71474 2.94337,-16.65037 -12.7464,-39.17517 -12.7464,-39.17517 l 3.04189,-5.19708 c 5.49265,4.75373 9.38431,3.57146 9.38431,3.57146 l 3.91628,-0.98523 v -0.97292 h 2.94338 l 0.65271,-2.61085 2.61086,-1.30543 c 0,0 1.30543,1.95814 2.29065,2.61085 0.97292,0.65272 2.61086,0.97292 3.59609,-0.65271 0.97291,-1.63794 1.30543,-8.16509 0.65271,-10.12323 -0.65271,-1.95814 0.65272,-3.91628 2.93106,-4.236483 2.29066,-0.332515 1.30543,-1.637943 2.94337,-4.901514 1.63795,-3.263571 5.55423,-6.206943 4.58132,-12.734086 -1.74878,-11.638018 -23.20215,-20.234141 -27.78346,-22.192284 -4.569,-1.958143 -8.48529,0 -16.66269,5.554229 -10.35722,7.032072 -10.80057,19.49522 -10.06165,26.601184 l -5.6158,5.061614 c 0,-0.01232 -4.7291,-1.785727 -13.21439,0.529561 -6.02221,-2.980318 -23.52234,-8.546862 -54.42159,5.344869 -16.94594,7.61089 -23.81791,10.65279 -26.15783,11.66265 -4.23648,2.45075 -15.20947,9.98776 -15.99766,22.611 -0.76355,12.32768 -0.33251,37.96827 -0.0985,48.35012 l -1.08375,0.43104 -5.41876,-3.25126 2.50002,-3.66998 c 1.2069,-1.79804 0.75124,-4.22417 -1.04681,-5.44339 -1.78573,-1.21922 -4.22417,-0.75123 -5.44339,1.04681 l -9.31041,13.707 c -1.21922,1.78573 -0.75124,4.22417 1.03449,5.44339 1.79804,1.2069 4.23648,0.73892 5.4557,-1.04681 l 2.4015,-3.54682 4.22417,2.53696 c -1.19459,4.8892 -1.35469,12.46315 8.59612,13.39912 -5.06161,10.92372 -8.60844,26.12088 -6.71187,46.61365 l 5.88674,57.78368 -4.90151,43.07914 c 0,0 -6.85966,35.25888 -5.88675,55.82554 l 1.47785,-0.0616 v 14.6676 c -16.8351,2.16751 -33.75641,-1.40395 -51.4659,3.01727 -0.81282,0 -1.29312,0.34483 -1.78573,0.73892 -2.30297,-1.601 -4.70447,-3.18968 -7.09365,-4.90152 -0.98523,-1.95814 -5.88674,-0.97291 -7.84489,-3.91628 -0.98523,-1.95815 0.98523,-5.87443 0,-7.83257 -5.88674,-4.90152 -9.80303,-9.79072 -15.68977,-14.69223 -0.97291,-1.95814 -2.93106,-3.91629 -5.87443,-4.8892 -1.95814,0 0,-3.91629 -0.98523,-5.87443 -0.97291,0 -1.95814,-0.98523 -2.93105,-0.98523 -2.94337,-2.93105 -4.90152,-6.85966 -8.83012,-3.91628 -5.87443,3.91628 -10.77594,6.85965 -18.62083,8.8178 -5.88674,0.97291 -2.94337,8.80548 -5.88674,13.707 h -2.94337 c 0,2.93105 0,6.84734 -0.97292,8.8178 -5.88674,3.91628 -8.8178,9.79071 -13.71931,14.67991 -1.47784,0.98523 -2.20445,2.94337 -2.69707,5.14782 h -0.0616 l -3.09116,11.74886 h 539.15425 z m -283.95534,-239.9279 16.08386,-18.90409 4.49511,50.24669 -1.95814,8.80548 -2.90643,7.54932 c -14.37203,-16.28091 -23.55929,-22.22923 -23.55929,-22.22923 z m -59.8034,-52.88217 c 4.6552,-0.92365 11.72422,-2.51234 17.8819,-3.9286 -7.91878,10.20943 -16.46564,23.12825 -25.51743,39.42147 l -2.15519,-26.67507 c 0,0 0,-6.85966 9.79072,-8.8178 z m 7.43848,292.57608 c -0.0123,0.0862 -0.0123,0.1601 -0.0246,0.23399 h -42.54957 c -0.037,-0.28325 -0.0739,-0.57882 -0.12316,-0.88671 z m 42.56189,-103.57221 c -5.88674,21.53957 -14.70454,61.69997 -20.59129,75.40697 0,0 0.93597,0.43104 2.54928,1.1207 -5.17245,5.44339 -3.02958,12.5863 -3.02958,12.5863 l -0.98522,3.42367 8.32518,4.4089 0.98523,-1.46553 c 4.4089,-2.94337 7.84489,3.91629 7.84489,3.91629 l 2.54928,4.4089 h -16.03461 c 0.0246,-0.88671 -0.23399,-1.90888 -0.23399,-2.94337 -3.9286,0 -7.84488,-1.95814 -6.87197,-6.84734 -1.03449,0 -2.00741,-0.0493 -2.94337,-0.0862 -1.50248,-8.62076 -5.87443,-9.64293 -8.8178,-9.22421 -3.42367,0.49262 -12.7464,0 -12.7464,0 l -1.4409,-5.19708 4.38427,-0.18473 c 0,0 -1.95814,-15.66514 2.94337,-39.17517 4.90151,-23.49771 6.85966,-42.10623 5.88674,-54.84031 -0.98523,-12.72177 3.91629,-59.72951 3.91629,-59.72951 0,0 37.25397,25.45585 46.07177,42.10622 0,0 -5.88674,10.77594 -11.76117,32.31551 z m 14.88927,86.82331 c 1.65026,0.20937 3.23894,0.33252 4.71679,0.33252 2.94337,0 4.90151,-0.98523 5.87443,-9.79071 0,0 14.70454,-73.44883 20.59128,-87.15583 4.55669,-10.62816 12.08137,-22.47554 5.60349,-40.4806 l 24.63073,14.79075 10.28333,23.34993 2.11824,5.76359 4.59363,9.35968 21.95829,27.2539 c -0.51724,2.82021 -1.60099,5.38181 -3.50988,7.94341 -4.90151,6.85965 -11.77348,13.70699 -9.80302,23.51002 -9.80303,1.95815 -17.64792,10.76363 -24.50758,17.62329 -3.9286,3.91628 -10.78825,7.83257 -13.73163,12.73408 -1.95814,2.93106 -1.95814,7.83257 -4.90151,7.83257 -7.83257,1.95815 -14.69223,0.97292 -22.53712,0.97292 0,1.95814 -1.95814,2.94337 -3.17736,2.94337 l -0.25862,-3.91629 c -1.46553,-6.85965 -9.31042,-4.90151 -9.31042,-4.90151 l -8.32518,-4.8892 c 0.13547,-1.16996 -0.0246,-2.27834 -0.30789,-3.27589"
         style="fill:#000000;fill-rule:nonzero;stroke:none"
         id="path107" />
    </g>
  </g>
</svg>
